<?xml version="1.0" encoding="UTF-8"?>
<svg id="Capa_1" data-name="Capa 1" xmlns="http://www.w3.org/2000/svg" viewBox="0 0 250.53 300.06">
  <defs>
    <style>
      .cls-1 {
        fill: #ac84c8;
      }
    </style>
  </defs>
  <path class="cls-1" d="M100,286.77v.34c0,7.15-5.8,12.95-12.95,12.95H12.95C5.8,300.06,0,294.26,0,287.11v-74.1C0,205.86,5.8,200.06,12.95,200.06h0c7.12,0,12.91,5.75,12.95,12.87l.29,47.99c.04,7.12,5.83,12.87,12.95,12.87l47.92.02c7.15,0,12.95,5.8,12.95,12.95Z"/>
  <path class="cls-1" d="M13.29,100h-.34c-7.15,0-12.95-5.8-12.95-12.95V12.95C0,5.8,5.8,0,12.95,0h74.1C94.2,0,100,5.8,100,12.95h0c0,7.12-5.75,12.91-12.87,12.95l-47.99.29c-7.12.04-12.87,5.83-12.87,12.95l-.02,47.92c0,7.15-5.8,12.95-12.95,12.95Z"/>
  <path class="cls-1" d="M150.53,13.29v-.34c0-7.15,5.8-12.95,12.95-12.95h74.1c7.15,0,12.95,5.8,12.95,12.95v74.1c0,7.15-5.8,12.95-12.95,12.95h0c-7.12,0-12.91-5.75-12.95-12.87l-.29-47.99c-.04-7.12-5.83-12.87-12.95-12.87l-47.92-.02c-7.15,0-12.95-5.8-12.95-12.95Z"/>
  <path class="cls-1" d="M237.24,200.06h.34c7.15,0,12.95,5.8,12.95,12.95v74.1c0,7.15-5.8,12.95-12.95,12.95h-74.1c-7.15,0-12.95-5.8-12.95-12.95h0c0-7.12,5.75-12.91,12.87-12.95l47.99-.29c7.12-.04,12.87-5.83,12.87-12.95l.02-47.92c0-7.15,5.8-12.95,12.95-12.95Z"/>
</svg>